<svg viewBox="0 0 168 33" xmlns="http://www.w3.org/2000/svg">
  <defs>
    <style>
      @font-face{font-family:&apos;Alfa Slab One&apos;;font-style:normal;font-weight:400;src:local(&apos;Alfa Slab One Regular&apos;),local(&apos;AlfaSlabOne-Regular&apos;),url(https://fonts.gstatic.com/s/alfaslabone/v8/6NUQ8FmMKwSEKjnm5-4v-4Jh2d1he_escmAm9w.woff2) format(&apos;woff2&apos;);unicode-range:U+0102-0103,U+0110-0111,U+1EA0-1EF9,U+20AB}@font-face{font-family:&apos;Alfa Slab One&apos;;font-style:normal;font-weight:400;src:local(&apos;Alfa Slab One Regular&apos;),local(&apos;AlfaSlabOne-Regular&apos;),url(https://fonts.gstatic.com/s/alfaslabone/v8/6NUQ8FmMKwSEKjnm5-4v-4Jh2dxhe_escmAm9w.woff2) format(&apos;woff2&apos;);unicode-range:U+0100-024F,U+0259,U+1E00-1EFF,U+2020,U+20A0-20AB,U+20AD-20CF,U+2113,U+2C60-2C7F,U+A720-A7FF}@font-face{font-family:&apos;Alfa Slab One&apos;;font-style:normal;font-weight:400;src:local(&apos;Alfa Slab One Regular&apos;),local(&apos;AlfaSlabOne-Regular&apos;),url(https://fonts.gstatic.com/s/alfaslabone/v8/6NUQ8FmMKwSEKjnm5-4v-4Jh2dJhe_escmA.woff2) format(&apos;woff2&apos;);unicode-range:U+0000-00FF,U+0131,U+0152-0153,U+02BB-02BC,U+02C6,U+02DA,U+02DC,U+2000-206F,U+2074,U+20AC,U+2122,U+2191,U+2193,U+2212,U+2215,U+FEFF,U+FFFD}
    </style>
  </defs>
  <g id="Page-1" fill="none" fill-rule="evenodd">
    <g id="information" transform="translate(-28 -7)">
      <g id="logo" transform="translate(168 7)" fill-rule="nonzero">
        <path d="M8 20.4827622l.60275675.6027567c.36877578.3687758.86075737.5391792 1.34341597.5112103.19196278-.0111358.37958788.0592398.51554798.1951999L16.6697916 28 18 26.6697916l-6.2080709-6.2080709c-.1359601-.1359601-.206271-.3235852-.1951999-.515548.0279689-.4826586-.1424345-.9747049-.5112103-1.3434159L10.4827622 18 8 20.4827622z" id="Path" fill="#90CAF9"/>
        <path d="M16.9980642 2v12.6241779c0 .0910351-.0780992.1648962-.1745103.1648962-.716968 0-1.2982361.549245-1.2982361 1.2267139s.5812681 1.226714 1.2982361 1.226714c.0963428 0 .1745103.0737965.1745103.1648962v.3536164c0 .7986553-.4884784 1.5186719-1.245965 1.8730631-2.7921642 1.3063858-4.7287225 4.0212975-4.7518857 7.1461253-.0118208 1.5936305.4678432 3.0804724 1.3039756 4.3337221C12.6713166 31.6642032 13.3097755 32 13.9981822 32h11.0035757c.6841021 0 1.3218777-.3299861 1.687502-.8763257C27.519311 29.8834019 28 28.4136695 28 26.8376649c0-3.161371-1.9330052-5.8959747-4.7430714-7.206428-.7627478-.3556825-1.254916-1.0799603-1.254916-1.8836516v-.3401871c0-.0910351.0780992-.1648962.1745103-.1648962h.0062862c.716968 0 1.2982361-.5492451 1.2982361-1.226714s-.5812681-1.2267139-1.2982361-1.2267139h-.0062862c-.0963428 0-.1745103-.0737966-.1745103-.1648962V2h-5.0039484z" id="Path" fill="#90CAF9"/>
        <path d="M23.2414127 19.6311457c-.7652541-.3556833-1.2590393-1.0799626-1.2590393-1.8836556v-.3401879c0-.0910353.0783557-.1648965.1750836-.1648965h.0063069c.7193237 0 1.3025017-.5492463 1.3025017-1.2267166 0-.6774704-.583178-1.2267166-1.3025017-1.2267166h-.0063069c-.0966593 0-.1750836-.0737967-.1750836-.1648966V2h-2.742109v11.3328599c0 .0910352.0783558.1648965.1750837.1648965h.0063068c.7193238 0 1.3025018.5492462 1.3025018 1.2267166s-.583178 1.2267166-1.3025018 1.2267166h-.0063068c-.0966593 0-.1750837.0737967-.1750837.1648965v.3401879c0 .8036931.4937853 1.5279724 1.2590394 1.8836556 2.8192993 1.3104562 4.7586558 4.0450657 4.7586558 7.2064435 0 1.3800562-.3697734 2.6786325-1.0208871 3.8130226-.4774698.8319075-1.4019718 1.3493237-2.4060635 1.3493237H12c.0861022.1471414.1759748.2920877.2715373.4332892C12.6361693 31.6806017 13.2740524 32 13.9522445 32H24.991975c.6863499 0 1.326221-.3299868 1.6930467-.8763276C27.5178001 29.8833974 28 28.4136617 28 26.8376537c.0000686-3.1614423-1.939288-5.8960519-4.7585873-7.206508z" id="Path" fill="#42A5F5"/>
        <ellipse id="Oval" fill="#42A5F5" cx="19.5" cy="17" rx="1.5" ry="1"/>
        <path d="M10.7038569 17.3807858l-2.9778746 2.3822997c-.39485753.315886-1.03498162.315886-1.42983915 0-.39485753-.315886-.39485753-.8279853 0-1.1438713l2.97787455-2.3822997c.39485753-.315886 1.0349816-.315886 1.4298392 0 .3948575.315886.3948575.8279853 0 1.1438713zM21.9605182 2h-4.9210364C16.4653984 2 16 1.55227849 16 1s.4653984-1 1.0394818-1h4.9210364C22.5346016 0 23 .44772151 23 1c0 .55234032-.4653984 1-1.0394818 1zM12 23.6208587L16.5871269 28 18 26.6511882 13.1279054 22c-.4397607.4937415-.8194884 1.0375071-1.1279054 1.6208587z" id="Path" fill="#42A5F5"/>
        <path d="M6.50364257 8.52497309c0-1.29824665 1.0647721-2.35063336 2.37814768-2.35063336h-1.6779224c-.86752743 0-1.57084095-.69517644-1.57084095-1.55266689 0-.85749046.70331352-1.5526669 1.57084095-1.5526669H1.0716936c-.56749802 0-1.05087501-.43617743-1.07101572-.9967779C-.02046986 1.48369044.45592502 1 1.04658485 1h9.31299625c.5674981 0 1.050875.43617743 1.0710158.9967779.0211477.5885376-.4552472 1.07222804-1.045907 1.07222804h3.0118415c.8559129 0 1.5794343.66332414 1.6028647 1.5090027.0243031.8774645-.6880066 1.59626473-1.5702368 1.59626473h-2.0381725c.7546052 0 1.3639959.6148821 1.3431167 1.36546827-.0200736.723379-.6389304 1.29081445-1.3711123 1.29081445H8.97376615c-.31916309 0-.57783692.25574742-.57783692.57115155v7.72789876L6.50364257 19V8.52497309zM24.8948008 23.7854518c-.2012782-.2974883-.5596293-.444993-.9156262-.3934544-.3504386.0507557-.7478944.080374-1.2110044.080374C19.5001784 23.4723714 19.5001784 22 16.2321212 22h-.0030734c-.1960469.0000652-.3879085.0613896-.5462893.1767315-.4529086.3298467-.861285.7178211-1.2170204 1.1525715l3.4712318 3.4630641-1.343555 1.3403936-3.1270055-3.1196477c-.3008056.7460041-.4605596 1.5434163-.4662487 2.3548548-.0086972 1.2432533.335856 2.4527781.9961898 3.4979015.0530987.0839622.1421634.1341307.2382904.1341307h10.5308135c.0944922 0 .1838838-.0483419.2331897-.1263021C25.6537465 29.8403175 26 28.6442318 26 27.4146787c0-1.3273459-.3960172-2.5810373-1.1051992-3.6292269z" id="Path" fill="#FFE082"/>
        <path d="M20.0792788 29.8011205H13c.1582615.3739305.3585368.7344935.6008937 1.0756347.0548478.0771479.1468461.1232448.2461394.1232448h10.8777565c.0976047 0 .1899407-.0444185.2408708-.1160515C25.6423413 29.9344359 26 28.8354231 26 27.705659c0-1.2161434-.406765-2.3650296-1.1354567-3.326531-.2083134-.2748431-.5792788-.4178095-.9486231-.3700341-.3469188.044898-.7392289.0715731-1.192466.073851.3728567.7469618.5746857 1.5686139.5746857 2.4238346 0 .3093109-.026816.6163439-.0796374.9186414-.2393848 1.3697198-1.5773459 2.3756996-3.1392237 2.3756996z" id="Path" fill="#FFCA28"/>
        <g id="Group" fill="#000">
          <path d="M17.6413738 16.5c0 .9214863.760972 1.6712051 1.6962898 1.6712051.9353177 0 1.6962897-.7496543 1.6962897-1.6712051 0-.9215508-.760972-1.6712051-1.6962897-1.6712051-.9353178 0-1.6962898.7497188-1.6962898 1.6712051zm2.4112056 0c0 .3883945-.3206915.7044082-.7149813.7044082-.3942897 0-.7149813-.3160137-.7149813-.7044082 0-.3883945.3206916-.7044082.7149813-.7044082.3942898 0 .7149813.3160137.7149813.7044082z" id="Shape"/>
          <path d="M23.1518131 19.7356113c-1.0048598-.4886191-.9261589-1.4899629-.9280561-1.4964082.8048692-.1473398 1.4160935-.8443359 1.4160935-1.6793261 0-.8335079-.6091963-1.5294727-1.4160935-1.6784883v-2.1656895c0-.2669648-.2196168-.4833984-.4906542-.4833984s-.4906542.2164336-.4906542.4833984v2.4549551c0 .3572637.2950467.6480117.663757.6480117.4148318 0 .7523365.3325137.7523365.741211 0 .4086972-.3375047.7412109-.7584206.7412109-.3626916 0-.6577383.2906836-.6577383.6479473v.3396035c0 .9848437.5652336 1.8715254 1.4750374 2.3139316 4.1926729 2.0385879 5.4467196 7.107375 3.0888317 10.7808164-.2610934.4068926-.7100747.6498164-1.2009252.6498164H14.07c-.4917664 0-.9429065-.2463398-1.2068785-.6589687-1.3110935-2.0492227-1.5196542-4.573336-.6447196-6.7670625l.5126355.5050547c-.6918879 1.9519629-.4521215 4.1404043.6854766 5.9183437.1434673.2242324.3878131.3581016.6534206.3581016h6.473299c.2710374 0 .4906543-.2164336.4906543-.4833985 0-.2669648-.2196169-.4833984-.4906543-.4833984H14.188215c-.8172337-1.3315371-1.0843458-2.9683242-.67043-4.5344062l2.564944 2.5269492c.1915514.1886543.502299.1887832.6939159 0l1.3441308-1.3242539c.1916168-.1887832.1916168-.4948711 0-.6835899l-3.147514-3.1009043c.2566448-.2682539.5359252-.5120156.8346355-.7268379.0731402-.0525937.1645981-.0816621.2603084-.0816621 3.1255327 0 3.1447009 1.4546426 6.5388505 1.4546426.4657944 0 .8851402-.0276504 1.2820467-.0844336.1740187-.0253301.3465327.0460195.4387757.1807266 1.2771402 1.8640488 1.3877664 4.3717265.1589065 6.373834h-1.6538971c-.2710374 0-.4906543.2164335-.4906543.4833984 0 .2669648.2196169.4833984.4906543.4833984h1.7723738c.2612897 0 .5096262-.1340625.6479906-.3497871 1.4802711-2.3059394 1.4298318-5.2814179-.1119345-7.5316699-.3016542-.4404082-.8485701-.6746309-1.3933271-.5966426-.3496729.0500801-.7228318.0743789-1.1408692.0743789-3.1019159 0-3.1564766-1.4546426-6.5421869-1.4546426-.298972.0000645-.5957196.0951329-.8355514.267545-.3397944.2443418-.6574767.5207812-.9500374.8240332l-.4692617-.4623223c.6091963-.624873 1.3345795-1.1534531 2.1567196-1.5545449.9041776-.4411172 1.4658785-1.3236094 1.4658785-2.3030391v-.3530097c0-.3572637-.2950467-.6479473-.6577383-.6479473-.4148318 0-.7523364-.3325137-.7523364-.7412109 0-.4086973.3375046-.741211.7523364-.741211.3626916 0 .6577383-.2906836.6577383-.6480117V3.05159766h3.809701v7.40824214c0 .2669649.2196168.4833985.4906542.4833985s.4906542-.2164336.4906542-.4833985V3.00454687c.669972-.16790039 1.166972-.76718554 1.166972-1.47881249C23.390729.68449218 22.696028 0 21.8421589 0h-5.0089253c-.854 0-1.5487009.68449219-1.5487009 1.52579883 0 .7115625.497 1.31084765 1.166972 1.47874804V14.8816465c-.8018598.1497246-1.4100748.8453027-1.4100748 1.678166 0 .8328633.608215 1.5284414 1.4100748 1.678166-.0028131.009668.0779813 1.0137832-.9200094 1.5006621-.9026074.4402793-1.7168317 1.0314434-2.410028 1.7423614l-1.2736075-1.254709c-.0376822-.0371895-.0575701-.0895254-.0543645-.1435371.0732711-1.2459434-.8541962-1.85567-.9675701-2.0107442.5590841-1.0663769-.4604299-2.273584-1.6298224-1.9196719V9.59049609c0-.03938086.03251402-.07134961.07242056-.07134961h2.32825234c1.3467477 0 2.246215-1.3974082 1.6314579-2.57992968h.3819253c1.1392336 0 2.051785-.92393555 2.0205794-2.04709571-.0297009-1.06747265-.9503645-1.93584961-2.0523738-1.93584961h-1.5190654c.3649159-.9633164-.3507197-2.00958398-1.4403645-2.00958398H1.54385981c-.8562243 0-1.54006542.69796289-1.50951402 1.54197656.0289159.80431055.70274767 1.4344043 1.53398131 1.4344043h4.24278505c-.70307477 1.14984375-.0626729 2.66294531 1.28139252 2.96613281-.44839252.49042383-.72171962 1.13927344-.72171962 1.84974024v3.70979299c0 .2669648.21961682.4833984.4906542.4833984.27103739 0 .49065421-.2164336.49065421-.4833984V8.73894141c0-.99232032.81945794-1.79972461 1.82680374-1.79972461.27103738 0 .4906542-.2164336.4906542-.48339844s-.21961682-.48339844-.4906542-.48339844H7.54384112c-.57347663 0-1.03999065-.45967969-1.03999065-1.02467578s.46657944-1.02467578 1.03999065-1.02467578c.27103738 0 .49065421-.21643359.49065421-.48339844 0-.26696484-.21961683-.48339844-.49065421-.48339844H1.5683271c-.29517757 0-.54338317-.22513476-.5533271-.50196093-.01072897-.29777344.23008411-.54089063.52885981-.54089063h9.07507479c.2951121 0 .5433177.22519922.5533271.50196094.010729.29777344-.2300841.54089062-.5288598.54089062-.2710374 0-.4906542.2164336-.4906542.48339844 0 .26696485.2196168.48339844.4906542.48339844h2.9348972c.5755046 0 1.0562149.4465957 1.0714579.99554297.016028.57459961-.4499626 1.05380859-1.0396635 1.05380859h-1.9861028c-.2710374 0-.4906543.2164336-.4906543.48339844s.2196169.48339844.4906543.48339844c.4573551 0 .8311682.37047656.8184112.82957617-.0120374.43209375-.3913458.78355664-.8456262.78355664H9.26852336c-.58106542 0-1.05372897.46573828-1.05372897 1.03814648v7.30569731l-.86270093.8499433v-3.0415429c0-.2669649-.21961682-.4833985-.49065421-.4833985-.27103738 0-.4906542.2164336-.4906542.4833985v4.0083398l-.35484112.3495937c-.86858879.8558731-.24486916 2.3163165.97417757 2.3163165.2176542 0 .43517757-.0507247.63307476-.1514649.15851402.1124063.77569159 1.0262227 2.04085981.9531973.0550187-.0027715.10794393.0163711.14569159.0535605l1.66403734 1.6394297c-1.1915046 2.5897266-.9816355 5.6080664.5591496 8.0162285C12.477729 32.5849863 13.2392897 33 14.07 33h10.5353271c.829271 0 1.5882804-.4111465 2.0303925-1.0998926 2.7148225-4.2297363 1.1400841-9.9161777-3.4839065-12.1644961zM16.2657757 1.52579883c0-.30821485.2545514-.55900196.5673925-.55900196h5.0089253c.3127757 0 .5673271.25078711.5673271.55900196 0 .30821484-.2545514.55900195-.5673271.55900195h-5.0089253c-.3128411 0-.5673925-.25078711-.5673925-.55900195zM17.08 26.7483047l-.650215.640664c-.3917383-.3859453-3.0767943-3.0312949-3.7646261-3.708955.1536729-.2694141.3238318-.529418.5104112-.7784004.4686729.4618066 3.4091963 3.3588457 3.9044299 3.8466914zM6.70992523 20.2983516c-.15452336-.1522383-.15452336-.4000606 0-.5522344l2.61250468-2.5738711c.15445794-.1522383.40593458-.1522383.56039252 0 .15485047.1525605.15491587.3995449 0 .5522344-.56327103.5549414-2.07337383 2.0427129-2.61237383 2.5738066-.15452337.1521738-.406.1523027-.56052337.0000645zm3.79373837 1.2521953c-.2345982-.2311934-.56071967-.3542344-.89626173-.3351563-.749.0431192-1.0961215-.5171074-1.24429907-.6263554L10.178 18.8009766c.1113458.1466953.6791963.48733.6358224 1.2258339-.0193645.3290977.1046075.6509766.3400561.8830723L12.481 22.2173145c-.2375421.3063457-.3859159.531416-.5275514.7615136l-1.449785-1.4282812z" id="Shape"/>
          <ellipse id="Oval" cx="21.2653458" cy="27.9815508" rx="1" ry="1"/>
          <ellipse id="Oval" cx="22.7237664" cy="25.689082" rx="1" ry="1"/>
          <ellipse id="Oval" cx="24.0409439" cy="27.4571602" rx="1" ry="1"/>
        </g>
      </g>
      <text id="WeedTalks" font-family="AlfaSlabOne-Regular, Alfa Slab One" font-size="24" fill="#000">
        <tspan x="28" y="39">WeedTalks</tspan>
      </text>
    </g>
  </g>
</svg>
