<?xml version="1.0" encoding="UTF-8"?>
<svg viewBox="0 0 168 33" version="1.1" xmlns="http://www.w3.org/2000/svg" xmlns:xlink="http://www.w3.org/1999/xlink">
    <!-- Generator: Sketch 54.1 (76490) - https://sketchapp.com -->
    <title>information</title>
    <desc>Created with Sketch.</desc>
    <g id="Page-1" stroke="none" stroke-width="1" fill="none" fill-rule="evenodd">
        <g id="information" transform="translate(-28.000000, -7.000000)">
            <g id="logo" transform="translate(168.000000, 7.000000)" fill-rule="nonzero">
                <path d="M8,20.4827622 L8.60275675,21.0855189 C8.97153253,21.4542947 9.46351412,21.6246981 9.94617272,21.5967292 C10.1381355,21.5855934 10.3257606,21.655969 10.4617207,21.7919291 L16.6697916,28 L18,26.6697916 L11.7919291,20.4617207 C11.655969,20.3257606 11.5856581,20.1381355 11.5967292,19.9461727 C11.6246981,19.4635141 11.4542947,18.9714678 11.0855189,18.6027568 L10.4827622,18 L8,20.4827622 Z" id="Path" fill="#90CAF9"></path>
                <path d="M16.9980642,2 L16.9980642,14.6241779 C16.9980642,14.715213 16.919965,14.7890741 16.8235539,14.7890741 L16.8235539,14.7890741 C16.1065859,14.7890741 15.5253178,15.3383191 15.5253178,16.015788 L15.5253178,16.015788 C15.5253178,16.6932569 16.1065859,17.242502 16.8235539,17.242502 L16.8235539,17.242502 C16.9198967,17.242502 16.9980642,17.3162985 16.9980642,17.4073982 L16.9980642,17.7610146 C16.9980642,18.5596699 16.5095858,19.2796865 15.7520992,19.6340777 C12.959935,20.9404635 11.0233767,23.6553752 11.0002135,26.780203 C10.9883927,28.3738335 11.4680567,29.8606754 12.3041891,31.1139251 C12.6713166,31.6642032 13.3097755,32 13.9981822,32 L25.0017579,32 C25.68586,32 26.3236356,31.6700139 26.6892599,31.1236743 C27.519311,29.8834019 28,28.4136695 28,26.8376649 C28,23.6762939 26.0669948,20.9416902 23.2569286,19.6312369 C22.4941808,19.2755544 22.0020126,18.5512766 22.0020126,17.7475853 L22.0020126,17.4073982 C22.0020126,17.3163631 22.0801118,17.242502 22.1765229,17.242502 L22.1828091,17.242502 C22.8997771,17.242502 23.4810452,16.6932569 23.4810452,16.015788 L23.4810452,16.015788 C23.4810452,15.3383191 22.8997771,14.7890741 22.1828091,14.7890741 L22.1765229,14.7890741 C22.0801801,14.7890741 22.0020126,14.7152775 22.0020126,14.6241779 L22.0020126,2 L16.9980642,2 Z" id="Path" fill="#90CAF9"></path>
                <path d="M23.2414127,19.6311457 C22.4761586,19.2754624 21.9823734,18.5511831 21.9823734,17.7474901 L21.9823734,17.4073022 C21.9823734,17.3162669 22.0607291,17.2424057 22.157457,17.2424057 L22.1637639,17.2424057 C22.8830876,17.2424057 23.4662656,16.6931594 23.4662656,16.0156891 L23.4662656,16.0156891 C23.4662656,15.3382187 22.8830876,14.7889725 22.1637639,14.7889725 L22.157457,14.7889725 C22.0607977,14.7889725 21.9823734,14.7151758 21.9823734,14.6240759 L21.9823734,2 L19.2402644,2 L19.2402644,13.3328599 C19.2402644,13.4238951 19.3186202,13.4977564 19.4153481,13.4977564 L19.4216549,13.4977564 C20.1409787,13.4977564 20.7241567,14.0470026 20.7241567,14.724473 L20.7241567,14.724473 C20.7241567,15.4019434 20.1409787,15.9511896 19.4216549,15.9511896 L19.4153481,15.9511896 C19.3186888,15.9511896 19.2402644,16.0249863 19.2402644,16.1160861 L19.2402644,16.456274 C19.2402644,17.2599671 19.7340497,17.9842464 20.4993038,18.3399296 C23.3186031,19.6503858 25.2579596,22.3849953 25.2579596,25.5463731 C25.2579596,26.9264293 24.8881862,28.2250056 24.2370725,29.3593957 C23.7596027,30.1913032 22.8351007,30.7087194 21.831009,30.7087194 L12,30.7087194 C12.0861022,30.8558608 12.1759748,31.0008071 12.2715373,31.1420086 C12.6361693,31.6806017 13.2740524,32 13.9522445,32 L24.991975,32 C25.6783249,32 26.318196,31.6700132 26.6850217,31.1236724 C27.5178001,29.8833974 28,28.4136617 28,26.8376537 C28.0000686,23.6762114 26.060712,20.9416018 23.2414127,19.6311457 Z" id="Path" fill="#42A5F5"></path>
                <ellipse id="Oval" fill="#42A5F5" cx="19.5" cy="17" rx="1.5" ry="1"></ellipse>
                <path d="M10.7038569,17.3807858 L7.7259823,19.7630855 C7.33112477,20.0789715 6.69100068,20.0789715 6.29614315,19.7630855 L6.29614315,19.7630855 C5.90128562,19.4471995 5.90128562,18.9351002 6.29614315,18.6192142 L9.2740177,16.2369145 C9.66887523,15.9210285 10.3089993,15.9210285 10.7038569,16.2369145 L10.7038569,16.2369145 C11.0987144,16.5528005 11.0987144,17.0648998 10.7038569,17.3807858 Z" id="Path" fill="#42A5F5"></path>
                <path d="M21.9605182,2 L17.0394818,2 C16.4653984,2 16,1.55227849 16,1 L16,1 C16,0.447721511 16.4653984,0 17.0394818,0 L21.9605182,0 C22.5346016,0 23,0.447721511 23,1 L23,1 C23,1.55234032 22.5346016,2 21.9605182,2 Z" id="Path" fill="#42A5F5"></path>
                <path d="M12,23.6208587 L16.5871269,28 L18,26.6511882 L13.1279054,22 C12.6881447,22.4937415 12.308417,23.0375071 12,23.6208587 Z" id="Path" fill="#42A5F5"></path>
                <path d="M6.50364257,8.52497309 C6.50364257,7.22672644 7.56841467,6.17433973 8.88179025,6.17433973 L7.20386785,6.17433973 C6.33634042,6.17433973 5.6330269,5.47916329 5.6330269,4.62167284 C5.6330269,3.76418238 6.33634042,3.06900594 7.20386785,3.06900594 L1.0716936,3.06900594 C0.504195581,3.06900594 0.0208185869,2.63282851 0.000677878763,2.07222804 C-0.0204698647,1.48369044 0.455925017,1 1.04658485,1 L10.3595811,1 C10.9270792,1 11.4104561,1.43617743 11.4305969,1.9967779 C11.4517446,2.5853155 10.9753497,3.06900594 10.3846899,3.06900594 L13.3965314,3.06900594 C14.2524443,3.06900594 14.9759657,3.73233008 14.9993961,4.57800864 C15.0236992,5.45547314 14.3113895,6.17427337 13.4291593,6.17427337 L11.3909868,6.17427337 C12.145592,6.17427337 12.7549827,6.78915547 12.7341035,7.53974164 C12.7140299,8.26312064 12.0951731,8.83055609 11.3629912,8.83055609 L8.97376615,8.83055609 C8.65460306,8.83055609 8.39592923,9.08630351 8.39592923,9.40170764 L8.39592923,17.1296064 L6.50364257,19 L6.50364257,8.52497309 L6.50364257,8.52497309 Z" id="Path" fill="#FFE082"></path>
                <path d="M24.8948008,23.7854518 C24.6935226,23.4879635 24.3351715,23.3404588 23.9791746,23.3919974 C23.628736,23.4427531 23.2312802,23.4723714 22.7681702,23.4723714 C19.5001784,23.4723714 19.5001784,22 16.2321212,22 L16.2290478,22 C16.0330009,22.0000652 15.8411393,22.0613896 15.6827585,22.1767315 C15.2298499,22.5065782 14.8214735,22.8945526 14.4657381,23.329303 L17.9369699,26.7923671 L16.5934149,28.1327607 L13.4664094,25.013113 C13.1656038,25.7591171 13.0058498,26.5565293 13.0001607,27.3679678 C12.9914635,28.6112211 13.3360167,29.8207459 13.9963505,30.8658693 C14.0494492,30.9498315 14.1385139,31 14.2346409,31 L24.7654544,31 C24.8599466,31 24.9493382,30.9516581 24.9986441,30.8736979 C25.6537465,29.8403175 26,28.6442318 26,27.4146787 C26,26.0873328 25.6039828,24.8336414 24.8948008,23.7854518 Z" id="Path" fill="#FFE082"></path>
                <path d="M20.0792788,29.8011205 L13,29.8011205 C13.1582615,30.175051 13.3585368,30.535614 13.6008937,30.8767552 C13.6557415,30.9539031 13.7477398,31 13.8470331,31 L24.7247896,31 C24.8223943,31 24.9147303,30.9555815 24.9656604,30.8839485 C25.6423413,29.9344359 26,28.8354231 26,27.705659 C26,26.4895156 25.593235,25.3406294 24.8645433,24.379128 C24.6562299,24.1042849 24.2852645,23.9613185 23.9159202,24.0090939 C23.5690014,24.0539919 23.1766913,24.080667 22.7234542,24.0829449 C23.0963109,24.8299067 23.2981399,25.6515588 23.2981399,26.5067795 C23.2981399,26.8160904 23.2713239,27.1231234 23.2185025,27.4254209 C22.9791177,28.7951407 21.6411566,29.8011205 20.0792788,29.8011205 Z" id="Path" fill="#FFCA28"></path>
                <g id="Group" fill="#000000">
                    <path d="M17.6413738,16.5 C17.6413738,17.4214863 18.4023458,18.1712051 19.3376636,18.1712051 C20.2729813,18.1712051 21.0339533,17.4215508 21.0339533,16.5 C21.0339533,15.5784492 20.2729813,14.8287949 19.3376636,14.8287949 C18.4023458,14.8287949 17.6413738,15.5785137 17.6413738,16.5 Z M20.0525794,16.5 C20.0525794,16.8883945 19.7318879,17.2044082 19.3375981,17.2044082 C18.9433084,17.2044082 18.6226168,16.8883945 18.6226168,16.5 C18.6226168,16.1116055 18.9433084,15.7955918 19.3375981,15.7955918 C19.7318879,15.7955918 20.0525794,16.1116055 20.0525794,16.5 Z" id="Shape"></path>
                    <path d="M23.1518131,19.7356113 C22.1469533,19.2469922 22.2256542,18.2456484 22.223757,18.2392031 C23.0286262,18.0918633 23.6398505,17.3948672 23.6398505,16.559877 C23.6398505,15.7263691 23.0306542,15.0304043 22.223757,14.8813887 L22.223757,12.7156992 C22.223757,12.4487344 22.0041402,12.2323008 21.7331028,12.2323008 C21.4620654,12.2323008 21.2424486,12.4487344 21.2424486,12.7156992 L21.2424486,15.1706543 C21.2424486,15.527918 21.5374953,15.818666 21.9062056,15.818666 C22.3210374,15.818666 22.6585421,16.1511797 22.6585421,16.559877 C22.6585421,16.9685742 22.3210374,17.3010879 21.9001215,17.3010879 C21.5374299,17.3010879 21.2423832,17.5917715 21.2423832,17.9490352 L21.2423832,18.2886387 C21.2423832,19.2734824 21.8076168,20.1601641 22.7174206,20.6025703 C26.9100935,22.6411582 28.1641402,27.7099453 25.8062523,31.3833867 C25.5451589,31.7902793 25.0961776,32.0332031 24.6053271,32.0332031 L14.07,32.0332031 C13.5782336,32.0332031 13.1270935,31.7868633 12.8631215,31.3742344 C11.552028,29.3250117 11.3434673,26.8008984 12.2184019,24.6071719 L12.7310374,25.1122266 C12.0391495,27.0641895 12.2789159,29.2526309 13.416514,31.0305703 C13.5599813,31.2548027 13.8043271,31.3886719 14.0699346,31.3886719 L20.5432336,31.3886719 C20.814271,31.3886719 21.0338879,31.1722383 21.0338879,30.9052734 C21.0338879,30.6383086 20.814271,30.421875 20.5432336,30.421875 L14.188215,30.421875 C13.3709813,29.0903379 13.1038692,27.4535508 13.517785,25.8874688 L16.082729,28.414418 C16.2742804,28.6030723 16.585028,28.6032012 16.7766449,28.414418 L18.1207757,27.0901641 C18.3123925,26.9013809 18.3123925,26.595293 18.1207757,26.4065742 L14.9732617,23.3056699 C15.2299065,23.037416 15.5091869,22.7936543 15.8078972,22.578832 C15.8810374,22.5262383 15.9724953,22.4971699 16.0682056,22.4971699 C19.1937383,22.4971699 19.2129065,23.9518125 22.6070561,23.9518125 C23.0728505,23.9518125 23.4921963,23.9241621 23.8891028,23.8673789 C24.0631215,23.8420488 24.2356355,23.9133984 24.3278785,24.0481055 C25.6050187,25.9121543 25.7156449,28.419832 24.486785,30.4219395 L22.8328879,30.4219395 C22.5618505,30.4219395 22.3422336,30.638373 22.3422336,30.9053379 C22.3422336,31.1723027 22.5618505,31.3887363 22.8328879,31.3887363 L24.6052617,31.3887363 C24.8665514,31.3887363 25.1148879,31.2546738 25.2532523,31.0389492 C26.7335234,28.7330098 26.6830841,25.7575313 25.1413178,23.5072793 C24.8396636,23.0668711 24.2927477,22.8326484 23.7479907,22.9106367 C23.3983178,22.9607168 23.0251589,22.9850156 22.6071215,22.9850156 C19.5052056,22.9850156 19.4506449,21.530373 16.0649346,21.530373 C15.7659626,21.5304375 15.469215,21.6255059 15.2293832,21.797918 C14.8895888,22.0422598 14.5719065,22.3186992 14.2793458,22.6219512 L13.8100841,22.1596289 C14.4192804,21.5347559 15.1446636,21.0061758 15.9668037,20.605084 C16.8709813,20.1639668 17.4326822,19.2814746 17.4326822,18.3020449 L17.4326822,17.9490352 C17.4326822,17.5917715 17.1376355,17.3010879 16.7749439,17.3010879 C16.3601121,17.3010879 16.0226075,16.9685742 16.0226075,16.559877 C16.0226075,16.1511797 16.3601121,15.818666 16.7749439,15.818666 C17.1376355,15.818666 17.4326822,15.5279824 17.4326822,15.1706543 L17.4326822,3.05159766 L21.2423832,3.05159766 L21.2423832,10.4598398 C21.2423832,10.7268047 21.462,10.9432383 21.7330374,10.9432383 C22.0040748,10.9432383 22.2236916,10.7268047 22.2236916,10.4598398 L22.2236916,3.00454687 C22.8936636,2.83664648 23.3906636,2.23736133 23.3906636,1.52573438 C23.390729,0.684492187 22.696028,0 21.8421589,0 L16.8332336,0 C15.9792336,0 15.2845327,0.684492187 15.2845327,1.52579883 C15.2845327,2.23736133 15.7815327,2.83664648 16.4515047,3.00454687 L16.4515047,14.8816465 C15.6496449,15.0313711 15.0414299,15.7269492 15.0414299,16.5598125 C15.0414299,17.3926758 15.6496449,18.0882539 16.4515047,18.2379785 C16.4486916,18.2476465 16.529486,19.2517617 15.5314953,19.7386406 C14.6288879,20.1789199 13.8146636,20.770084 13.1214673,21.481002 L11.8478598,20.226293 C11.8101776,20.1891035 11.7902897,20.1367676 11.7934953,20.0827559 C11.8667664,18.8368125 10.9392991,18.2270859 10.8259252,18.0720117 C11.3850093,17.0056348 10.3654953,15.7984277 9.1961028,16.1523398 L9.1961028,9.59049609 C9.1961028,9.55111523 9.22861682,9.51914648 9.26852336,9.51914648 L11.5967757,9.51914648 C12.9435234,9.51914648 13.8429907,8.12173828 13.2282336,6.9392168 L13.6101589,6.9392168 C14.7493925,6.9392168 15.6619439,6.01528125 15.6307383,4.89212109 C15.6010374,3.82464844 14.6803738,2.95627148 13.5783645,2.95627148 L12.0592991,2.95627148 C12.424215,1.99295508 11.7085794,0.9466875 10.6189346,0.9466875 L1.54385981,0.9466875 C0.687635514,0.9466875 0.00379439252,1.64465039 0.0343457944,2.48866406 C0.0632616822,3.29297461 0.737093458,3.92306836 1.5683271,3.92306836 L5.81111215,3.92306836 C5.10803738,5.07291211 5.74843925,6.58601367 7.09250467,6.88920117 C6.64411215,7.379625 6.37078505,8.02847461 6.37078505,8.73894141 L6.37078505,12.4487344 C6.37078505,12.7156992 6.59040187,12.9321328 6.86143925,12.9321328 C7.13247664,12.9321328 7.35209346,12.7156992 7.35209346,12.4487344 L7.35209346,8.73894141 C7.35209346,7.74662109 8.1715514,6.9392168 9.1788972,6.9392168 C9.44993458,6.9392168 9.6695514,6.7227832 9.6695514,6.45581836 C9.6695514,6.18885352 9.44993458,5.97241992 9.1788972,5.97241992 L7.54384112,5.97241992 C6.97036449,5.97241992 6.50385047,5.51274023 6.50385047,4.94774414 C6.50385047,4.38274805 6.97042991,3.92306836 7.54384112,3.92306836 C7.8148785,3.92306836 8.03449533,3.70663477 8.03449533,3.43966992 C8.03449533,3.17270508 7.8148785,2.95627148 7.54384112,2.95627148 L1.5683271,2.95627148 C1.27314953,2.95627148 1.02494393,2.73113672 1.015,2.45431055 C1.00427103,2.15653711 1.24508411,1.91341992 1.54385981,1.91341992 L10.6189346,1.91341992 C10.9140467,1.91341992 11.1622523,2.13861914 11.1722617,2.41538086 C11.1829907,2.7131543 10.9421776,2.95627148 10.6434019,2.95627148 C10.3723645,2.95627148 10.1527477,3.17270508 10.1527477,3.43966992 C10.1527477,3.70663477 10.3723645,3.92306836 10.6434019,3.92306836 L13.5782991,3.92306836 C14.1538037,3.92306836 14.634514,4.36966406 14.649757,4.91861133 C14.665785,5.49321094 14.1997944,5.97241992 13.6100935,5.97241992 L11.6239907,5.97241992 C11.3529533,5.97241992 11.1333364,6.18885352 11.1333364,6.45581836 C11.1333364,6.7227832 11.3529533,6.9392168 11.6239907,6.9392168 C12.0813458,6.9392168 12.4551589,7.30969336 12.4424019,7.76879297 C12.4303645,8.20088672 12.0510561,8.55234961 11.5967757,8.55234961 L9.26852336,8.55234961 C8.68745794,8.55234961 8.21479439,9.01808789 8.21479439,9.59049609 L8.21479439,16.8961934 L7.35209346,17.7461367 L7.35209346,14.7045938 C7.35209346,14.4376289 7.13247664,14.2211953 6.86143925,14.2211953 C6.59040187,14.2211953 6.37078505,14.4376289 6.37078505,14.7045938 L6.37078505,18.7129336 L6.01594393,19.0625273 C5.14735514,19.9184004 5.77107477,21.3788438 6.9901215,21.3788438 C7.2077757,21.3788438 7.42529907,21.3281191 7.62319626,21.2273789 C7.78171028,21.3397852 8.39888785,22.2536016 9.66405607,22.1805762 C9.71907477,22.1778047 9.772,22.1969473 9.80974766,22.2341367 L11.473785,23.8735664 C10.2822804,26.463293 10.4921495,29.4816328 12.0329346,31.8897949 C12.477729,32.5849863 13.2392897,33 14.07,33 L24.6053271,33 C25.4345981,33 26.1936075,32.5888535 26.6357196,31.9001074 C29.3505421,27.6703711 27.7758037,21.9839297 23.1518131,19.7356113 Z M16.2657757,1.52579883 C16.2657757,1.21758398 16.5203271,0.966796875 16.8331682,0.966796875 L21.8420935,0.966796875 C22.1548692,0.966796875 22.4094206,1.21758398 22.4094206,1.52579883 C22.4094206,1.83401367 22.1548692,2.08480078 21.8420935,2.08480078 L16.8331682,2.08480078 C16.5203271,2.08480078 16.2657757,1.83401367 16.2657757,1.52579883 Z M17.08,26.7483047 L16.429785,27.3889687 C16.0380467,27.0030234 13.3529907,24.3576738 12.6651589,23.6800137 C12.8188318,23.4105996 12.9889907,23.1505957 13.1755701,22.9016133 C13.644243,23.3634199 16.5847664,26.260459 17.08,26.7483047 Z M6.70992523,20.2983516 C6.55540187,20.1461133 6.55540187,19.898291 6.70992523,19.7461172 L9.32242991,17.1722461 C9.47688785,17.0200078 9.72836449,17.0200078 9.88282243,17.1722461 C10.0376729,17.3248066 10.0377383,17.571791 9.88282243,17.7244805 C9.3195514,18.2794219 7.8094486,19.7671934 7.2704486,20.2982871 C7.11592523,20.4504609 6.8644486,20.4505898 6.70992523,20.2983516 Z M10.5036636,21.5505469 C10.2690654,21.3193535 9.94294393,21.1963125 9.60740187,21.2153906 C8.85840187,21.2585098 8.51128037,20.6982832 8.3631028,20.5890352 L10.178,18.8009766 C10.2893458,18.9476719 10.8571963,19.2883066 10.8138224,20.0268105 C10.7944579,20.3559082 10.9184299,20.6777871 11.1538785,20.9098828 L12.481,22.2173145 C12.2434579,22.5236602 12.0950841,22.7487305 11.9534486,22.9788281 L10.5036636,21.5505469 Z" id="Shape"></path>
                    <ellipse id="Oval" cx="21.2653458" cy="27.9815508" rx="1" ry="1"></ellipse>
                    <ellipse id="Oval" cx="22.7237664" cy="25.689082" rx="1" ry="1"></ellipse>
                    <ellipse id="Oval" cx="24.0409439" cy="27.4571602" rx="1" ry="1"></ellipse>
                </g>
            </g>
            <text id="WeedTalks" font-family="AlfaSlabOne-Regular, Alfa Slab One" font-size="24" font-weight="normal" fill="#000000">
                <tspan x="28" y="39">WeedTalks</tspan>
            </text>
        </g>
    </g>
</svg>
