<?xml version="1.0" standalone="no"?>
<!DOCTYPE svg PUBLIC "-//W3C//DTD SVG 20010904//EN"
 "http://www.w3.org/TR/2001/REC-SVG-20010904/DTD/svg10.dtd">
<svg version="1.0" xmlns="http://www.w3.org/2000/svg"
 width="512.000000pt" height="512.000000pt" viewBox="0 0 512.000000 512.000000"
 preserveAspectRatio="xMidYMid meet">
<metadata>
Created by potrace 1.11, written by Peter Selinger 2001-2013
</metadata>
<g transform="translate(0.000000,512.000000) scale(0.100000,-0.100000)"
fill="#000000" stroke="none">
<path d="M2922 5106 c-62 -20 -106 -58 -136 -118 -59 -119 -11 -261 109 -317
l45 -21 0 -920 0 -919 -41 -12 c-62 -19 -134 -89 -158 -155 -25 -65 -26 -103
-6 -171 21 -69 81 -135 150 -164 55 -23 55 -23 49 -58 -18 -100 -60 -150 -194
-225 -103 -58 -176 -112 -253 -185 l-58 -55 -103 103 -103 103 -6 64 c-6 80
-41 154 -100 212 l-45 44 15 46 c41 135 -67 268 -211 261 l-51 -3 -3 509 c-2
400 0 510 10 517 7 4 108 8 224 8 206 0 211 1 262 26 116 58 180 205 139 321
-8 23 -12 45 -9 48 3 3 33 5 67 5 74 0 168 41 211 93 136 161 91 393 -94 484
-54 26 -66 28 -213 31 l-157 4 9 36 c12 52 -6 132 -41 180 -17 23 -50 50 -81
66 l-53 26 -745 0 c-702 0 -748 -2 -786 -19 -152 -70 -183 -277 -57 -381 67
-56 101 -60 469 -60 l334 0 -17 -32 c-26 -50 -30 -164 -9 -229 23 -69 112
-161 173 -180 23 -7 42 -13 42 -14 0 -2 -16 -29 -35 -61 -63 -104 -65 -120
-65 -499 0 -319 1 -343 18 -358 24 -22 85 -22 103 0 11 12 15 89 19 357 6 379
6 379 77 457 46 51 98 78 177 90 36 6 69 18 80 29 27 27 25 78 -3 102 -20 16
-42 18 -174 18 -130 0 -156 3 -191 20 -49 24 -83 70 -91 125 -12 77 65 175
136 175 67 0 110 50 90 103 -6 14 -19 31 -30 36 -13 7 -180 11 -499 11 -463 0
-480 1 -505 20 -13 11 -28 31 -31 45 -7 29 15 79 39 89 9 3 343 6 741 6 l725
0 24 -25 c27 -26 31 -51 14 -89 -11 -23 -26 -32 -94 -52 -62 -19 -68 -106 -9
-133 16 -7 111 -11 278 -11 246 0 254 -1 286 -22 56 -39 75 -73 75 -136 0 -70
-28 -115 -89 -143 -35 -16 -67 -19 -217 -19 -154 0 -179 -2 -197 -17 -54 -46
-26 -115 50 -128 24 -4 53 -14 66 -23 52 -34 67 -112 32 -170 -34 -56 -64 -62
-297 -62 -197 0 -210 -2 -247 -23 -79 -45 -76 -18 -76 -677 l0 -586 -70 -69
-70 -69 0 252 c0 239 -1 253 -20 272 -26 26 -74 26 -100 0 -19 -19 -20 -33
-20 -341 l0 -321 -41 -46 c-82 -92 -97 -167 -54 -259 34 -75 96 -113 179 -112
34 0 70 4 81 8 16 7 30 -1 68 -36 62 -58 143 -94 222 -101 l63 -5 127 -127
128 -128 -40 -124 c-58 -175 -68 -239 -68 -428 0 -233 35 -382 136 -588 64
-129 127 -200 217 -244 l67 -33 890 0 890 0 65 31 c36 17 85 51 111 77 94 96
201 349 235 556 20 124 15 354 -10 470 -86 390 -321 707 -667 895 -97 53 -151
107 -169 169 -18 66 -11 90 28 101 51 14 126 87 152 148 41 96 17 213 -62 289
-34 33 -56 45 -110 63 -16 5 -18 22 -18 169 0 170 -9 220 -40 237 -30 16 -68
12 -90 -10 -19 -19 -20 -33 -20 -246 l0 -226 28 -28 c18 -17 44 -30 72 -35 77
-13 110 -49 110 -121 0 -51 -49 -99 -112 -108 -36 -5 -54 -15 -74 -39 -25 -30
-26 -35 -22 -127 3 -79 9 -105 33 -155 38 -80 111 -150 217 -208 279 -152 464
-373 562 -667 47 -143 60 -241 53 -419 -7 -206 -55 -371 -155 -537 -40 -67
-55 -82 -101 -106 l-53 -28 -842 0 c-567 0 -854 4 -880 11 -110 30 -227 239
-277 492 -23 120 -25 312 -4 424 18 93 55 223 64 223 4 0 22 -16 41 -35 l33
-35 -23 -97 c-28 -120 -37 -300 -20 -414 22 -153 113 -381 176 -440 l26 -24
530 -3 531 -3 24 22 c33 31 31 81 -3 108 -26 21 -36 21 -524 21 l-497 0 -35
78 c-68 146 -88 238 -88 397 0 98 13 210 26 224 3 3 98 -88 212 -202 115 -114
216 -207 226 -207 34 0 73 30 179 138 91 95 107 115 107 143 0 29 -27 59 -250
284 l-251 252 48 45 c86 80 91 82 201 75 134 -9 233 -35 398 -106 226 -97 259
-104 527 -107 165 -1 232 -6 243 -15 8 -7 30 -37 47 -68 149 -257 162 -569 35
-844 l-41 -87 -137 0 c-124 0 -140 -2 -164 -21 -34 -27 -36 -79 -3 -109 21
-20 31 -21 194 -18 l172 3 30 29 c59 56 134 235 166 395 24 117 17 352 -14
466 -29 105 -87 235 -139 312 -60 88 -107 110 -227 103 -280 -15 -412 4 -619
91 -235 99 -328 122 -506 123 -97 1 -108 -1 -152 -27 -26 -15 -74 -52 -106
-82 l-59 -54 -37 38 -37 38 58 49 c96 82 133 109 238 169 122 70 176 120 218
204 27 56 32 77 35 163 4 97 4 100 -23 128 -18 19 -41 30 -73 35 -65 10 -112
58 -112 114 0 58 45 108 106 117 25 3 58 17 72 29 l27 23 5 964 5 963 290 0
290 0 3 -592 2 -592 27 -21 c31 -24 66 -20 98 11 19 19 20 35 23 613 l3 594
28 10 c42 15 102 72 122 117 21 46 24 126 8 176 -18 52 -55 96 -107 126 l-47
28 -430 2 c-340 2 -439 -1 -473 -11z m893 -161 c38 -37 37 -88 -1 -122 l-25
-23 -415 0 -415 0 -24 25 c-40 40 -30 116 18 135 12 5 206 9 430 9 l408 1 24
-25z m-1881 -2497 c9 -12 16 -31 16 -42 0 -24 -401 -430 -440 -446 -49 -20
-90 19 -76 73 3 12 99 115 214 230 182 181 212 207 239 207 22 0 37 -7 47 -22z
m122 -345 c8 -18 14 -49 14 -70 0 -85 16 -112 141 -238 l119 -121 -41 -57 -41
-58 -127 123 c-134 131 -163 148 -250 148 -49 0 -93 20 -139 63 l-32 31 137
138 137 138 34 -33 c19 -17 41 -46 48 -64z m684 -838 l295 -295 -50 -50 -50
-50 -289 289 -290 290 37 55 c21 31 41 56 45 56 4 0 140 -133 302 -295z"/>
<path d="M3315 2811 c-52 -13 -91 -39 -132 -85 -85 -97 -85 -235 0 -332 93
-106 224 -121 343 -41 118 79 141 252 50 372 -51 66 -178 108 -261 86z m137
-177 c40 -39 40 -101 -1 -146 -25 -28 -36 -33 -76 -33 -40 0 -51 5 -76 33 -49
55 -32 144 35 173 34 14 87 2 118 -27z"/>
<path d="M3845 1185 c-14 -13 -25 -36 -25 -50 0 -31 41 -75 70 -75 79 0 105
106 34 139 -37 16 -52 14 -79 -14z"/>
<path d="M4041 904 c-12 -15 -21 -34 -21 -44 0 -34 39 -70 75 -70 36 0 75 36
75 70 0 34 -39 70 -75 70 -24 0 -39 -7 -54 -26z"/>
<path d="M3620 830 c-24 -24 -26 -67 -4 -98 20 -28 83 -31 107 -4 40 45 6 122
-53 122 -17 0 -39 -9 -50 -20z"/>
</g>
</svg>
